<svg id="visual" viewBox="0 0 900 900" width="auto" height="auto" xmlns="http://www.w3.org/2000/svg" xmlns:xlink="http://www.w3.org/1999/xlink" version="1.1"><path d="M485 900L497.2 875C509.3 850 533.7 800 540.5 750C547.3 700 536.7 650 528.3 600C520 550 514 500 520.2 450C526.3 400 544.7 350 548.2 300C551.7 250 540.3 200 535.2 150C530 100 531 50 531.5 25L532 0L900 0L900 25C900 50 900 100 900 150C900 200 900 250 900 300C900 350 900 400 900 450C900 500 900 550 900 600C900 650 900 700 900 750C900 800 900 850 900 875L900 900Z" fill="#1f1e26"></path><path d="M573 900L571.3 875C569.7 850 566.3 800 570 750C573.7 700 584.3 650 592.3 600C600.3 550 605.7 500 600.3 450C595 400 579 350 573 300C567 250 571 200 573.2 150C575.3 100 575.7 50 575.8 25L576 0L900 0L900 25C900 50 900 100 900 150C900 200 900 250 900 300C900 350 900 400 900 450C900 500 900 550 900 600C900 650 900 700 900 750C900 800 900 850 900 875L900 900Z" fill="#1c1b22"></path><path d="M670 900L665.5 875C661 850 652 800 649.8 750C647.7 700 652.3 650 658.2 600C664 550 671 500 667.2 450C663.3 400 648.7 350 653 300C657.3 250 680.7 200 684.2 150C687.7 100 671.3 50 663.2 25L655 0L900 0L900 25C900 50 900 100 900 150C900 200 900 250 900 300C900 350 900 400 900 450C900 500 900 550 900 600C900 650 900 700 900 750C900 800 900 850 900 875L900 900Z" fill="#19181e"></path><path d="M775 900L768.5 875C762 850 749 800 740.8 750C732.7 700 729.3 650 737.7 600C746 550 766 500 770 450C774 400 762 350 763.3 300C764.7 250 779.3 200 778.5 150C777.7 100 761.3 50 753.2 25L745 0L900 0L900 25C900 50 900 100 900 150C900 200 900 250 900 300C900 350 900 400 900 450C900 500 900 550 900 600C900 650 900 700 900 750C900 800 900 850 900 875L900 900Z" fill="#16151a"></path><path d="M813 900L817.5 875C822 850 831 800 828.3 750C825.7 700 811.3 650 814.8 600C818.3 550 839.7 500 849.3 450C859 400 857 350 855.2 300C853.3 250 851.7 200 853 150C854.3 100 858.7 50 860.8 25L863 0L900 0L900 25C900 50 900 100 900 150C900 200 900 250 900 300C900 350 900 400 900 450C900 500 900 550 900 600C900 650 900 700 900 750C900 800 900 850 900 875L900 900Z" fill="#131217"></path></svg>