<svg id="visual" viewBox="0 0 960 540" width="960" height="540" xmlns="http://www.w3.org/2000/svg" xmlns:xlink="http://www.w3.org/1999/xlink" version="1.1"><path d="M0 403L32 399.8C64 396.7 128 390.3 192 389C256 387.7 320 391.3 384 386.8C448 382.3 512 369.7 576 370.3C640 371 704 385 768 390C832 395 896 391 928 389L960 387L960 541L928 541C896 541 832 541 768 541C704 541 640 541 576 541C512 541 448 541 384 541C320 541 256 541 192 541C128 541 64 541 32 541L0 541Z" fill="#1f1e26"></path><path d="M0 386L32 389.3C64 392.7 128 399.3 192 406.7C256 414 320 422 384 426.5C448 431 512 432 576 424.8C640 417.7 704 402.3 768 400.8C832 399.3 896 411.7 928 417.8L960 424L960 541L928 541C896 541 832 541 768 541C704 541 640 541 576 541C512 541 448 541 384 541C320 541 256 541 192 541C128 541 64 541 32 541L0 541Z" fill="#1c1b22"></path><path d="M0 416L32 417.3C64 418.7 128 421.3 192 426.2C256 431 320 438 384 443.8C448 449.7 512 454.3 576 455.8C640 457.3 704 455.7 768 453.2C832 450.7 896 447.3 928 445.7L960 444L960 541L928 541C896 541 832 541 768 541C704 541 640 541 576 541C512 541 448 541 384 541C320 541 256 541 192 541C128 541 64 541 32 541L0 541Z" fill="#19181e"></path><path d="M0 457L32 455.5C64 454 128 451 192 453.3C256 455.7 320 463.3 384 462.8C448 462.3 512 453.7 576 456.7C640 459.7 704 474.3 768 474.3C832 474.3 896 459.7 928 452.3L960 445L960 541L928 541C896 541 832 541 768 541C704 541 640 541 576 541C512 541 448 541 384 541C320 541 256 541 192 541C128 541 64 541 32 541L0 541Z" fill="#16151a"></path><path d="M0 486L32 488C64 490 128 494 192 499.5C256 505 320 512 384 514C448 516 512 513 576 509.5C640 506 704 502 768 503.7C832 505.3 896 512.7 928 516.3L960 520L960 541L928 541C896 541 832 541 768 541C704 541 640 541 576 541C512 541 448 541 384 541C320 541 256 541 192 541C128 541 64 541 32 541L0 541Z" fill="#131217"></path></svg>